<?xml version="1.0" encoding="UTF-8"?>
<svg xmlns="http://www.w3.org/2000/svg" version="1.0" width="1200.000000pt" height="1200.000000pt" viewBox="0 0 1200.000000 1200.000000" preserveAspectRatio="xMidYMid meet" style="background: transparent;">
<metadata>
Created by potrace 1.16, written by Peter Selinger 2001-2019
</metadata>
<g transform="translate(0.000000,1200.000000) scale(0.100000,-0.100000)" fill="#000000" stroke="none">
<path d="M3420 9989 c-274 -32 -554 -129 -785 -274 -129 -81 -185 -126 -314 -250 -318 -307 -512 -704 -560 -1147 -7 -62 -11 -457 -11 -1083 l0 -985 4250 0 4250 0 0 985 c0 638 -4 1020 -11 1083 -47 427 -229 813 -522 1111 -293 298 -609 464 -1042 549 -71 14 -359 16 -2630 18 -1402 1 -2584 -2 -2625 -7z"/>
<path d="M1753 4218 c3 -1411 -1 -1306 64 -1513 113 -356 375 -655 718 -820 101 -48 211 -85 336 -112 80 -17 231 -18 3129 -18 2898 0 3049 1 3129 18 323 70 595 228 789 460 157 186 246 369 308 627 17 70 18 166 21 1358 l4 1282 -1751 0 -1750 0 0 -35 c0 -107 -58 -278 -128 -382 -300 -441 -944 -441 -1244 0 -72 105 -128 274 -128 382 l0 35 -1750 0 -1751 0 4 -1282z"/>
</g>
</svg>